<!-- Generated by IcoMoon.io -->
<svg version="1.1" xmlns="http://www.w3.org/2000/svg" viewBox="0 0 32 32">
<title>icon-prev</title>
<path d="M9.028 8.725v2.654c0 0.183 0.098 0.352 0.256 0.443l6.468 3.734c0.341 0.197 0.341 0.69 0 0.887l-6.468 3.734c-0.158 0.092-0.256 0.26-0.256 0.443v2.654c0 0.394 0.427 0.64 0.768 0.443l12.6-7.275c0.341-0.197 0.341-0.69 0-0.887l-12.6-7.275c-0.341-0.197-0.768 0.049-0.768 0.444z"></path>
<path d="M22.396 15.557l-12.6-7.275c-0.062-0.036-0.126-0.052-0.191-0.061l12.151 7.015c0.341 0.197 0.341 0.69 0 0.887l-12.6 7.275c-0.032 0.019-0.066 0.029-0.099 0.040 0.099 0.292 0.448 0.447 0.739 0.28l12.6-7.275c0.341-0.197 0.341-0.69 0-0.887z"></path>
</svg>
