<svg aria-hidden="true" style="position: absolute; width: 0; height: 0; overflow: hidden;" version="1.1" xmlns="http://www.w3.org/2000/svg" xmlns:xlink="http://www.w3.org/1999/xlink">
<defs>
<symbol id="icon-close" viewBox="0 0 32 32">
<path d="M1.646 32c-0.422 0-0.843-0.16-1.163-0.483-0.643-0.643-0.643-1.685 0-2.328l28.707-28.707c0.643-0.643 1.685-0.643 2.328 0s0.643 1.685 0 2.329l-28.707 28.706c-0.323 0.321-0.744 0.483-1.165 0.483z"></path>
<path d="M30.355 32c-0.421 0-0.843-0.16-1.163-0.483l-28.709-28.706c-0.643-0.643-0.643-1.686 0-2.329s1.685-0.643 2.329 0l28.707 28.707c0.643 0.643 0.643 1.685 0 2.328-0.323 0.321-0.744 0.483-1.163 0.483z"></path>
</symbol>
<symbol id="icon-ticket_barcode" viewBox="0 0 45 32">
<path d="M5.020 1.569h-5.020v30.118h5.020v-30.118z"></path>
<path d="M17.645 1.569h-5.020v30.118h5.020v-30.118z"></path>
<path d="M25.25 1.569h-5.019v30.118h5.019v-30.118z"></path>
<path d="M45.176 1.569h-7.453v30.118h7.453v-30.118z"></path>
<path d="M10.039 1.569h-2.434v30.118h2.434v-30.118z"></path>
<path d="M30.118 1.569h-2.434v30.118h2.434v-30.118z"></path>
<path d="M35.137 1.569h-2.434v30.118h2.434v-30.118z"></path>
</symbol>
<symbol id="icon-location" viewBox="0 0 22 32">
<path  d="M11.2 0c-6.176 0-11.2 4.992-11.2 11.123 0 7.709 11.21 20.877 11.21 20.877s11.19-13.549 11.19-20.877c0-6.134-5.024-11.123-11.2-11.123zM14.579 14.381c-0.931 0.925-2.157 1.386-3.379 1.386s-2.448-0.461-3.379-1.386c-0.863-0.857-1.398-2.045-1.398-3.357s0.534-2.5 1.397-3.357l0-0c0.902-0.896 2.102-1.389 3.379-1.389s2.477 0.493 3.379 1.389c1.862 1.853 1.862 4.864 0 6.714z"></path>
</symbol>
<symbol id="icon-linkedin" viewBox="0 0 32 32">
<path d="M25.6 4.267h-19.2c-1.179 0-2.133 0.955-2.133 2.133v19.2c0 1.179 0.955 2.133 2.133 2.133h19.2c1.179 0 2.133-0.955 2.133-2.133v-19.2c0-1.179-0.955-2.133-2.133-2.133zM11.684 23.467h-3.147v-10.125h3.147v10.125zM10.079 11.894c-1.014 0-1.835-0.822-1.835-1.835s0.821-1.834 1.835-1.834c1.011 0 1.834 0.822 1.834 1.834 0 1.012-0.822 1.835-1.834 1.835zM23.471 23.467h-3.145v-4.924c0-1.174-0.021-2.685-1.635-2.685-1.637 0-1.889 1.279-1.889 2.599v5.009h-3.145v-10.125h3.019v1.383h0.043c0.42-0.796 1.446-1.635 2.977-1.635 3.186 0 3.775 2.097 3.775 4.823v5.553z"></path>
</symbol>
<symbol id="icon-github" viewBox="0 0 32 32">
<path d="M14.533 2.8c-6.133 0.667-11.067 5.6-11.733 11.6-0.667 6.267 2.933 11.867 8.4 14 0.4 0.133 0.8-0.133 0.8-0.667v-2.133c0 0-0.533 0.133-1.2 0.133-1.867 0-2.667-1.6-2.8-2.533-0.133-0.533-0.4-0.933-0.8-1.333-0.4-0.133-0.533-0.133-0.533-0.267 0-0.267 0.4-0.267 0.533-0.267 0.8 0 1.467 0.933 1.733 1.333 0.667 1.067 1.467 1.333 1.867 1.333 0.533 0 0.933-0.133 1.2-0.267 0.133-0.933 0.533-1.867 1.333-2.4-3.067-0.667-5.333-2.4-5.333-5.333 0-1.467 0.667-2.933 1.6-4-0.133-0.267-0.267-0.933-0.267-1.867 0-0.533 0-1.333 0.4-2.133 0 0 1.867 0 3.733 1.733 0.667-0.267 1.6-0.4 2.533-0.4s1.867 0.133 2.667 0.4c1.733-1.733 3.733-1.733 3.733-1.733 0.267 0.8 0.267 1.6 0.267 2.133 0 1.067-0.133 1.6-0.267 1.867 0.933 1.067 1.6 2.4 1.6 4 0 2.933-2.267 4.667-5.333 5.333 0.8 0.667 1.333 1.867 1.333 3.067v3.467c0 0.4 0.4 0.8 0.933 0.667 4.933-2 8.4-6.8 8.4-12.4 0-8-6.8-14.267-14.8-13.333z"></path>
</symbol>
<symbol id="icon-circle-up" viewBox="0 0 32 32">
<path d="M0 16c0 8.837 7.163 16 16 16s16-7.163 16-16-7.163-16-16-16-16 7.163-16 16zM29 16c0 7.18-5.82 13-13 13s-13-5.82-13-13 5.82-13 13-13 13 5.82 13 13z"></path>
<path d="M22.086 20.914l2.829-2.829-8.914-8.914-8.914 8.914 2.828 2.828 6.086-6.086z"></path>
</symbol>
</defs>
</svg>

