<svg aria-hidden="true" style="position: absolute; width: 0; height: 0; overflow: hidden;" version="1.1" xmlns="http://www.w3.org/2000/svg" xmlns:xlink="http://www.w3.org/1999/xlink">
<defs>
<symbol id="icon-close" viewBox="0 0 32 32">
<path d="M1.646 32c-0.422 0-0.843-0.16-1.163-0.483-0.643-0.643-0.643-1.685 0-2.328l28.707-28.707c0.643-0.643 1.685-0.643 2.328 0s0.643 1.685 0 2.329l-28.707 28.706c-0.323 0.321-0.744 0.483-1.165 0.483z"></path>
<path d="M30.355 32c-0.421 0-0.843-0.16-1.163-0.483l-28.709-28.706c-0.643-0.643-0.643-1.686 0-2.329s1.685-0.643 2.329 0l28.707 28.707c0.643 0.643 0.643 1.685 0 2.328-0.323 0.321-0.744 0.483-1.163 0.483z"></path>
</symbol>
<symbol id="icon-ticket_barcode" viewBox="0 0 45 32">
<path d="M5.020 1.569h-5.020v30.118h5.020v-30.118z"></path>
<path d="M17.645 1.569h-5.020v30.118h5.020v-30.118z"></path>
<path d="M25.25 1.569h-5.019v30.118h5.019v-30.118z"></path>
<path d="M45.176 1.569h-7.453v30.118h7.453v-30.118z"></path>
<path d="M10.039 1.569h-2.434v30.118h2.434v-30.118z"></path>
<path d="M30.118 1.569h-2.434v30.118h2.434v-30.118z"></path>
<path d="M35.137 1.569h-2.434v30.118h2.434v-30.118z"></path>
</symbol>
<symbol id="icon-location" viewBox="0 0 22 32">
<path  d="M11.2 0c-6.176 0-11.2 4.992-11.2 11.123 0 7.709 11.21 20.877 11.21 20.877s11.19-13.549 11.19-20.877c0-6.134-5.024-11.123-11.2-11.123zM14.579 14.381c-0.931 0.925-2.157 1.386-3.379 1.386s-2.448-0.461-3.379-1.386c-0.863-0.857-1.398-2.045-1.398-3.357s0.534-2.5 1.397-3.357l0-0c0.902-0.896 2.102-1.389 3.379-1.389s2.477 0.493 3.379 1.389c1.862 1.853 1.862 4.864 0 6.714z"></path>
</symbol>
</defs>
</svg>

